PathFileType	4	(X/Y/Z)	pose_F01_0-96.trc
DataRate	CameraRate	NumFrames	NumMarkers	Units	OrigDataRate	OrigDataStartFrame	OrigNumFrames
30	30	9	21	m	30	32	96
Frame#	Time	CHip			RHip			RKnee			RAnkle			RBigToe			RSmallToe			RHeel			LHip			LKnee			LAnkle			LBigToe			LSmallToe			LHeel			Neck			Nose			RShoulder			RElbow			RWrist			LShoulder			LElbow			LWrist			
		X1	Y1	Z1	X2	Y2	Z2	X3	Y3	Z3	X4	Y4	Z4	X5	Y5	Z5	X6	Y6	Z6	X7	Y7	Z7	X8	Y8	Z8	X9	Y9	Z9	X10	Y10	Z10	X11	Y11	Z11	X12	Y12	Z12	X13	Y13	Z13	X14	Y14	Z14	X15	Y15	Z15	X16	Y16	Z16	X17	Y17	Z17	X18	Y18	Z18	X19	Y19	Z19	X20	Y20	Z20	X21	Y21	Z21	
32	1.0666666666666667	-0.26721783979824965	1.8315624346057506	-0.5848480367294654	-0.2784685093399905	1.8289061215709919	-0.5211518130573961	-0.24592887861894563	1.6953768014407875	-0.4441117231574156													-0.2538850798424487	1.8337751712966923	-0.6534502398995656	-0.22263336777192558	1.7227591541157514	-0.6046296733483204													-0.25636685007615734	2.0031319782841703	-0.6015460379285423	-0.23723095206249634	2.063003997172547	-0.5717343720277158	-0.272413630391533	2.0009451213933676	-0.5042613647008046	-0.2768790588122011	1.977337226172786	-0.383386193513419	-0.2419963947827216	1.981795732870627	-0.3044211912439647	-0.23639146281491105	2.0099630412729796	-0.6960753597087287	-1.18758184587649	1.8395301967861197	0.2192629500304286	-0.19109805017916145	1.9557158036947564	-0.6941995281839608
33	1.1	-0.26682040667296314	1.8377536008890263	-0.6026260390153021	-0.27903305992494243	1.8346065573534711	-0.5338963483410879	-0.24592887861894563	1.6953768014407875	-0.4441117231574156													-0.25348719938395253	1.8396939752455788	-0.6625844122306426	-0.22263336777192558	1.7227591541157514	-0.6046296733483204													-0.2552694437997171	2.0032517936852505	-0.6070494764520924	-0.23823736604755796	2.0571836136132857	-0.5826886521196911	-0.27135162477306557	1.999794499479935	-0.5093881856767536	-0.2766256138829022	1.9651642724039393	-0.38682625940714316	-0.242225306863603	1.9724246426629193	-0.3253457691537525	-0.2361432343702287	2.008006775439879	-0.7041160895025275	-1.1797566624861302	1.831675692386131	0.19981180233623588	-1.3372073375593192	1.8613973391096892	0.4963165959180082
34	1.1333333333333333	-0.2674778135221508	1.8428519360133109	-0.6151244590780688	-0.2810624576063433	1.8412671271060914	-0.5499010697203974	-0.24592887861894563	1.6953768014407875	-0.4441117231574156													-0.256929792166221	1.8474975723186788	-0.676288818198893	-0.22263336777192558	1.7227591541157514	-0.6046296733483204													-0.258829802411397	2.005986902422963	-0.6194852305102442	-0.23913927307050026	2.054615303881819	-0.5939570817665152	-0.27552058700321297	2.001671452913182	-0.5224326159168656	-0.2791038522401608	1.9634805625779077	-0.4016665222205202	-0.24498977200001065	1.973008778725066	-0.3496695889841975	-0.23863610819462383	2.011100515897278	-0.7137471098930491	-1.1775477479253516	1.833225212714298	0.18230122983420533	-1.3173062231530785	1.8564359965638022	0.45162661176352975
35	1.1666666666666667	-0.2713491554099559	1.8514772999631819	-0.6203923786877336	-0.2848931627951017	1.8487819167677884	-0.5552554286760134	-0.24592887861894563	1.6953768014407875	-0.4441117231574156													-0.25885714553704575	1.8541334907924185	-0.6832825575613574	-0.22263336777192558	1.7227591541157514	-0.6046296733483204													-0.26177821832950615	2.012245576626516	-0.6302035542599098	-0.23784019352612537	2.052957127294415	-0.6071855746850916	-0.281450873122572	2.008540645876255	-0.5339418458730303	-0.2781850204370676	1.962434374965896	-0.406665040492976	-0.24275900662390618	1.9821634217105428	-0.3684303199228498	-0.24127833168059373	2.015961166731212	-0.7238377750689038	-1.162504280268312	1.8369466801934549	0.14751168927281189	-1.3043756219092653	1.8585637252891078	0.42175696752057107
36	1.2	-0.27317510766860065	1.8594876341207192	-0.627505577079961	-0.28569504460053013	1.856121712302613	-0.5592866177017722	-0.24592887861894563	1.6953768014407875	-0.4441117231574156													-0.2617455615583995	1.8627730122557296	-0.6850583158224486	-0.22263336777192558	1.7227591541157514	-0.6046296733483204													-0.2627593703716895	2.0158621093956075	-0.6341545980321474	-0.2393327046729872	2.0558945062691087	-0.622040167925804	-0.2823964836790928	2.0128760639840033	-0.5379952596439419	-0.28036880422227395	1.9650491435907451	-0.41357928814832423	-0.24396519686262047	1.9925375342941662	-0.3906708523242459	-0.24289819316061953	2.0202725546180753	-0.7301580429077763	-1.1767653079039138	1.8417092190121738	0.1508201085850222	-1.2832697417212804	1.8520115607653413	0.37612901296972645
37	1.2333333333333334	-0.2763414271251901	1.8591626069632579	-0.628693741525266	-0.28684361808926234	1.85648922922824	-0.5625875982309302	-0.24592887861894563	1.6953768014407875	-0.4441117231574156													-0.2628657336025321	1.8628055624643587	-0.6882602946620128	-0.22263336777192558	1.7227591541157514	-0.6046296733483204													-0.2654787900815704	2.0205284126766	-0.6353738483560671	-0.2369701508381138	2.058840771095378	-0.6328444312586422	-0.2822703768842241	2.016431879311085	-0.5384134992193181	-0.28365886719626504	1.9664150119775996	-0.42358366606813674	-0.24547477743911442	1.9992832886777636	-0.4126259831020434	-0.24446735997753372	2.0266566713148277	-0.7366330954873158	-1.1843532924459232	1.8481276190469687	0.15374438644352612	-1.2961477254954497	1.854507333227899	0.3849208597091621
38	1.2666666666666666	-0.2803424650014194	1.863889361373066	-0.6247384801325104	-0.2888048626093454	1.8629574713855652	-0.5609562310205498	-0.24592887861894563	1.6953768014407875	-0.4441117231574156													-0.265721550203347	1.8670429673310505	-0.6894152273111245	-0.22263336777192558	1.7227591541157514	-0.6046296733483204													-0.2662292374622153	2.0253046577021756	-0.6386064735347468	-0.23776407333384655	2.062762450553648	-0.6362050971839249	-0.2830359807770392	2.0223969010688325	-0.5422966838914629	-1.7818758146989586	1.888224867922878	1.2251708688885776	-0.2629207506818349	2.001827714469194	-0.42631979163725026	-0.24745432692802727	2.030987435613098	-0.737997210512888	-0.24069743226776077	1.9469552723468213	-0.7896235843279225	-0.2214185975358527	1.9605562960370513	-0.7226903471696469
39	1.3	-0.28252509024910544	1.8677732683535548	-0.6229115457563484	-0.2908484762886257	1.8660872553928736	-0.5593242217097958	-0.24592887861894563	1.6953768014407875	-0.4441117231574156													-0.2691937614579546	1.869678870917455	-0.6824373560794629	-0.22263336777192558	1.7227591541157514	-0.6046296733483204													-0.27135376690382174	2.0292464781490165	-0.6379761675108563	-0.24072179584822898	2.068220677404607	-0.6384921393596574	-0.28602933323387003	2.0270975653449326	-0.5438690820645727	-0.28626659930470333	1.9737592146700134	-0.42571357963708667	-0.25090790063043344	2.0141533886136935	-0.44946878128783224	-0.2518426368382797	2.033171788865365	-0.7340051320864673	-0.24270868132750448	1.950122019040465	-0.7903652308653792	-0.22219572944621738	1.962173926145162	-0.7257331168063484
40	1.3333333333333333	-0.283463380108356	1.8745652414799137	-0.6183018484579784	-0.29145732006602887	1.869722613522058	-0.5543968167241229	-0.24592887861894563	1.6953768014407875	-0.4441117231574156													-0.27312104309673907	1.8777145241866655	-0.6786956585937255	-0.22263336777192558	1.7227591541157514	-0.6046296733483204													-0.2754871577042075	2.0332385760973515	-0.6343449735200563	-0.2457535683356808	2.0707424359180173	-0.6373593549158058	-0.2898821789130929	2.0312458469157053	-0.5397569732033088	-0.28626053732715445	1.978339959863663	-0.43470449777343084	-0.24674179824450698	2.024913236114037	-0.48075735782862655	-0.25618148815906244	2.0354488770881827	-0.7299719993383639	-0.24471993038724818	1.9532887657341083	-0.7911068774028359	-0.22611940373355316	1.9639339712582022	-0.7299318975862557
